<mxfile host="app.diagrams.net" modified="2020-10-30T06:30:30.754Z" agent="5.0 (Windows NT 10.0; Win64; x64) AppleWebKit/537.36 (KHTML, like Gecko) Chrome/86.0.4240.111 Safari/537.36" etag="Bx6ikg7PY5dxEw_INWJu" version="13.8.7" type="github">
  <diagram id="Tv_DxE1UvmHW5Ng8PQFv" name="第 1 页">
    <mxGraphModel dx="633" dy="1426" grid="1" gridSize="10" guides="1" tooltips="1" connect="1" arrows="1" fold="1" page="1" pageScale="1" pageWidth="827" pageHeight="1169" math="0" shadow="0">
      <root>
        <mxCell id="0" />
        <mxCell id="1" parent="0" />
        <mxCell id="Gw61-tyBEQuD_TWDLa6r-95" value="" style="rounded=0;whiteSpace=wrap;html=1;" parent="1" vertex="1">
          <mxGeometry x="310" y="80" width="150" height="30" as="geometry" />
        </mxCell>
        <mxCell id="Gw61-tyBEQuD_TWDLa6r-86" value="" style="rounded=0;whiteSpace=wrap;html=1;" parent="1" vertex="1">
          <mxGeometry x="40" width="150" height="210" as="geometry" />
        </mxCell>
        <mxCell id="Gw61-tyBEQuD_TWDLa6r-2" value="" style="ellipse;whiteSpace=wrap;html=1;aspect=fixed;" parent="1" vertex="1">
          <mxGeometry x="50" y="190" width="10" height="10" as="geometry" />
        </mxCell>
        <mxCell id="Gw61-tyBEQuD_TWDLa6r-3" value="" style="ellipse;whiteSpace=wrap;html=1;aspect=fixed;" parent="1" vertex="1">
          <mxGeometry x="70" y="190" width="10" height="10" as="geometry" />
        </mxCell>
        <mxCell id="Gw61-tyBEQuD_TWDLa6r-4" value="" style="ellipse;whiteSpace=wrap;html=1;aspect=fixed;" parent="1" vertex="1">
          <mxGeometry x="90" y="190" width="10" height="10" as="geometry" />
        </mxCell>
        <mxCell id="Gw61-tyBEQuD_TWDLa6r-5" value="" style="ellipse;whiteSpace=wrap;html=1;aspect=fixed;" parent="1" vertex="1">
          <mxGeometry x="110" y="190" width="10" height="10" as="geometry" />
        </mxCell>
        <mxCell id="Gw61-tyBEQuD_TWDLa6r-6" value="" style="ellipse;whiteSpace=wrap;html=1;aspect=fixed;" parent="1" vertex="1">
          <mxGeometry x="130" y="190" width="10" height="10" as="geometry" />
        </mxCell>
        <mxCell id="Gw61-tyBEQuD_TWDLa6r-7" value="" style="ellipse;whiteSpace=wrap;html=1;aspect=fixed;" parent="1" vertex="1">
          <mxGeometry x="150" y="190" width="10" height="10" as="geometry" />
        </mxCell>
        <mxCell id="Gw61-tyBEQuD_TWDLa6r-8" value="" style="ellipse;whiteSpace=wrap;html=1;aspect=fixed;" parent="1" vertex="1">
          <mxGeometry x="170" y="190" width="10" height="10" as="geometry" />
        </mxCell>
        <mxCell id="Gw61-tyBEQuD_TWDLa6r-14" value="" style="ellipse;whiteSpace=wrap;html=1;aspect=fixed;" parent="1" vertex="1">
          <mxGeometry x="50" y="170" width="10" height="10" as="geometry" />
        </mxCell>
        <mxCell id="Gw61-tyBEQuD_TWDLa6r-15" value="" style="ellipse;whiteSpace=wrap;html=1;aspect=fixed;" parent="1" vertex="1">
          <mxGeometry x="70" y="170" width="10" height="10" as="geometry" />
        </mxCell>
        <mxCell id="Gw61-tyBEQuD_TWDLa6r-16" value="" style="ellipse;whiteSpace=wrap;html=1;aspect=fixed;" parent="1" vertex="1">
          <mxGeometry x="90" y="170" width="10" height="10" as="geometry" />
        </mxCell>
        <mxCell id="Gw61-tyBEQuD_TWDLa6r-17" value="" style="ellipse;whiteSpace=wrap;html=1;aspect=fixed;" parent="1" vertex="1">
          <mxGeometry x="110" y="170" width="10" height="10" as="geometry" />
        </mxCell>
        <mxCell id="Gw61-tyBEQuD_TWDLa6r-18" value="" style="ellipse;whiteSpace=wrap;html=1;aspect=fixed;" parent="1" vertex="1">
          <mxGeometry x="130" y="170" width="10" height="10" as="geometry" />
        </mxCell>
        <mxCell id="Gw61-tyBEQuD_TWDLa6r-19" value="" style="ellipse;whiteSpace=wrap;html=1;aspect=fixed;" parent="1" vertex="1">
          <mxGeometry x="150" y="170" width="10" height="10" as="geometry" />
        </mxCell>
        <mxCell id="Gw61-tyBEQuD_TWDLa6r-20" value="" style="ellipse;whiteSpace=wrap;html=1;aspect=fixed;" parent="1" vertex="1">
          <mxGeometry x="170" y="170" width="10" height="10" as="geometry" />
        </mxCell>
        <mxCell id="Gw61-tyBEQuD_TWDLa6r-24" value="" style="ellipse;whiteSpace=wrap;html=1;aspect=fixed;" parent="1" vertex="1">
          <mxGeometry x="49" y="150" width="10" height="10" as="geometry" />
        </mxCell>
        <mxCell id="Gw61-tyBEQuD_TWDLa6r-25" value="" style="ellipse;whiteSpace=wrap;html=1;aspect=fixed;" parent="1" vertex="1">
          <mxGeometry x="69" y="150" width="10" height="10" as="geometry" />
        </mxCell>
        <mxCell id="Gw61-tyBEQuD_TWDLa6r-26" value="" style="ellipse;whiteSpace=wrap;html=1;aspect=fixed;" parent="1" vertex="1">
          <mxGeometry x="89" y="150" width="10" height="10" as="geometry" />
        </mxCell>
        <mxCell id="Gw61-tyBEQuD_TWDLa6r-27" value="" style="ellipse;whiteSpace=wrap;html=1;aspect=fixed;" parent="1" vertex="1">
          <mxGeometry x="109" y="150" width="10" height="10" as="geometry" />
        </mxCell>
        <mxCell id="Gw61-tyBEQuD_TWDLa6r-28" value="" style="ellipse;whiteSpace=wrap;html=1;aspect=fixed;" parent="1" vertex="1">
          <mxGeometry x="129" y="150" width="10" height="10" as="geometry" />
        </mxCell>
        <mxCell id="Gw61-tyBEQuD_TWDLa6r-29" value="" style="ellipse;whiteSpace=wrap;html=1;aspect=fixed;" parent="1" vertex="1">
          <mxGeometry x="149" y="150" width="10" height="10" as="geometry" />
        </mxCell>
        <mxCell id="Gw61-tyBEQuD_TWDLa6r-30" value="" style="ellipse;whiteSpace=wrap;html=1;aspect=fixed;" parent="1" vertex="1">
          <mxGeometry x="169" y="150" width="10" height="10" as="geometry" />
        </mxCell>
        <mxCell id="Gw61-tyBEQuD_TWDLa6r-34" value="" style="ellipse;whiteSpace=wrap;html=1;aspect=fixed;" parent="1" vertex="1">
          <mxGeometry x="49" y="130" width="10" height="10" as="geometry" />
        </mxCell>
        <mxCell id="Gw61-tyBEQuD_TWDLa6r-35" value="" style="ellipse;whiteSpace=wrap;html=1;aspect=fixed;" parent="1" vertex="1">
          <mxGeometry x="69" y="130" width="10" height="10" as="geometry" />
        </mxCell>
        <mxCell id="Gw61-tyBEQuD_TWDLa6r-36" value="" style="ellipse;whiteSpace=wrap;html=1;aspect=fixed;" parent="1" vertex="1">
          <mxGeometry x="89" y="130" width="10" height="10" as="geometry" />
        </mxCell>
        <mxCell id="Gw61-tyBEQuD_TWDLa6r-37" value="" style="ellipse;whiteSpace=wrap;html=1;aspect=fixed;" parent="1" vertex="1">
          <mxGeometry x="109" y="130" width="10" height="10" as="geometry" />
        </mxCell>
        <mxCell id="Gw61-tyBEQuD_TWDLa6r-38" value="" style="ellipse;whiteSpace=wrap;html=1;aspect=fixed;" parent="1" vertex="1">
          <mxGeometry x="129" y="130" width="10" height="10" as="geometry" />
        </mxCell>
        <mxCell id="Gw61-tyBEQuD_TWDLa6r-39" value="" style="ellipse;whiteSpace=wrap;html=1;aspect=fixed;" parent="1" vertex="1">
          <mxGeometry x="149" y="130" width="10" height="10" as="geometry" />
        </mxCell>
        <mxCell id="Gw61-tyBEQuD_TWDLa6r-40" value="" style="ellipse;whiteSpace=wrap;html=1;aspect=fixed;" parent="1" vertex="1">
          <mxGeometry x="169" y="130" width="10" height="10" as="geometry" />
        </mxCell>
        <mxCell id="Gw61-tyBEQuD_TWDLa6r-44" value="" style="ellipse;whiteSpace=wrap;html=1;aspect=fixed;" parent="1" vertex="1">
          <mxGeometry x="49" y="110" width="10" height="10" as="geometry" />
        </mxCell>
        <mxCell id="Gw61-tyBEQuD_TWDLa6r-45" value="" style="ellipse;whiteSpace=wrap;html=1;aspect=fixed;" parent="1" vertex="1">
          <mxGeometry x="69" y="110" width="10" height="10" as="geometry" />
        </mxCell>
        <mxCell id="Gw61-tyBEQuD_TWDLa6r-46" value="" style="ellipse;whiteSpace=wrap;html=1;aspect=fixed;" parent="1" vertex="1">
          <mxGeometry x="89" y="110" width="10" height="10" as="geometry" />
        </mxCell>
        <mxCell id="Gw61-tyBEQuD_TWDLa6r-47" value="" style="ellipse;whiteSpace=wrap;html=1;aspect=fixed;" parent="1" vertex="1">
          <mxGeometry x="109" y="110" width="10" height="10" as="geometry" />
        </mxCell>
        <mxCell id="Gw61-tyBEQuD_TWDLa6r-48" value="" style="ellipse;whiteSpace=wrap;html=1;aspect=fixed;" parent="1" vertex="1">
          <mxGeometry x="129" y="110" width="10" height="10" as="geometry" />
        </mxCell>
        <mxCell id="Gw61-tyBEQuD_TWDLa6r-49" value="" style="ellipse;whiteSpace=wrap;html=1;aspect=fixed;" parent="1" vertex="1">
          <mxGeometry x="149" y="110" width="10" height="10" as="geometry" />
        </mxCell>
        <mxCell id="Gw61-tyBEQuD_TWDLa6r-50" value="" style="ellipse;whiteSpace=wrap;html=1;aspect=fixed;" parent="1" vertex="1">
          <mxGeometry x="169" y="110" width="10" height="10" as="geometry" />
        </mxCell>
        <mxCell id="Gw61-tyBEQuD_TWDLa6r-51" value="" style="ellipse;whiteSpace=wrap;html=1;aspect=fixed;" parent="1" vertex="1">
          <mxGeometry x="49.5" y="90" width="10" height="10" as="geometry" />
        </mxCell>
        <mxCell id="Gw61-tyBEQuD_TWDLa6r-52" value="" style="ellipse;whiteSpace=wrap;html=1;aspect=fixed;" parent="1" vertex="1">
          <mxGeometry x="69.5" y="90" width="10" height="10" as="geometry" />
        </mxCell>
        <mxCell id="Gw61-tyBEQuD_TWDLa6r-53" value="" style="ellipse;whiteSpace=wrap;html=1;aspect=fixed;" parent="1" vertex="1">
          <mxGeometry x="89.5" y="90" width="10" height="10" as="geometry" />
        </mxCell>
        <mxCell id="Gw61-tyBEQuD_TWDLa6r-54" value="" style="ellipse;whiteSpace=wrap;html=1;aspect=fixed;" parent="1" vertex="1">
          <mxGeometry x="109.5" y="90" width="10" height="10" as="geometry" />
        </mxCell>
        <mxCell id="Gw61-tyBEQuD_TWDLa6r-55" value="" style="ellipse;whiteSpace=wrap;html=1;aspect=fixed;" parent="1" vertex="1">
          <mxGeometry x="129.5" y="90" width="10" height="10" as="geometry" />
        </mxCell>
        <mxCell id="Gw61-tyBEQuD_TWDLa6r-56" value="" style="ellipse;whiteSpace=wrap;html=1;aspect=fixed;" parent="1" vertex="1">
          <mxGeometry x="149.5" y="90" width="10" height="10" as="geometry" />
        </mxCell>
        <mxCell id="Gw61-tyBEQuD_TWDLa6r-57" value="" style="ellipse;whiteSpace=wrap;html=1;aspect=fixed;" parent="1" vertex="1">
          <mxGeometry x="169.5" y="90" width="10" height="10" as="geometry" />
        </mxCell>
        <mxCell id="Gw61-tyBEQuD_TWDLa6r-58" value="" style="ellipse;whiteSpace=wrap;html=1;aspect=fixed;" parent="1" vertex="1">
          <mxGeometry x="49.5" y="70" width="10" height="10" as="geometry" />
        </mxCell>
        <mxCell id="Gw61-tyBEQuD_TWDLa6r-59" value="" style="ellipse;whiteSpace=wrap;html=1;aspect=fixed;" parent="1" vertex="1">
          <mxGeometry x="69.5" y="70" width="10" height="10" as="geometry" />
        </mxCell>
        <mxCell id="Gw61-tyBEQuD_TWDLa6r-60" value="" style="ellipse;whiteSpace=wrap;html=1;aspect=fixed;" parent="1" vertex="1">
          <mxGeometry x="89.5" y="70" width="10" height="10" as="geometry" />
        </mxCell>
        <mxCell id="Gw61-tyBEQuD_TWDLa6r-61" value="" style="ellipse;whiteSpace=wrap;html=1;aspect=fixed;" parent="1" vertex="1">
          <mxGeometry x="109.5" y="70" width="10" height="10" as="geometry" />
        </mxCell>
        <mxCell id="Gw61-tyBEQuD_TWDLa6r-62" value="" style="ellipse;whiteSpace=wrap;html=1;aspect=fixed;" parent="1" vertex="1">
          <mxGeometry x="129.5" y="70" width="10" height="10" as="geometry" />
        </mxCell>
        <mxCell id="Gw61-tyBEQuD_TWDLa6r-63" value="" style="ellipse;whiteSpace=wrap;html=1;aspect=fixed;" parent="1" vertex="1">
          <mxGeometry x="149.5" y="70" width="10" height="10" as="geometry" />
        </mxCell>
        <mxCell id="Gw61-tyBEQuD_TWDLa6r-64" value="" style="ellipse;whiteSpace=wrap;html=1;aspect=fixed;" parent="1" vertex="1">
          <mxGeometry x="169.5" y="70" width="10" height="10" as="geometry" />
        </mxCell>
        <mxCell id="Gw61-tyBEQuD_TWDLa6r-65" value="" style="ellipse;whiteSpace=wrap;html=1;aspect=fixed;" parent="1" vertex="1">
          <mxGeometry x="48.5" y="50" width="10" height="10" as="geometry" />
        </mxCell>
        <mxCell id="Gw61-tyBEQuD_TWDLa6r-66" value="" style="ellipse;whiteSpace=wrap;html=1;aspect=fixed;" parent="1" vertex="1">
          <mxGeometry x="68.5" y="50" width="10" height="10" as="geometry" />
        </mxCell>
        <mxCell id="Gw61-tyBEQuD_TWDLa6r-67" value="" style="ellipse;whiteSpace=wrap;html=1;aspect=fixed;" parent="1" vertex="1">
          <mxGeometry x="88.5" y="50" width="10" height="10" as="geometry" />
        </mxCell>
        <mxCell id="Gw61-tyBEQuD_TWDLa6r-68" value="" style="ellipse;whiteSpace=wrap;html=1;aspect=fixed;" parent="1" vertex="1">
          <mxGeometry x="108.5" y="50" width="10" height="10" as="geometry" />
        </mxCell>
        <mxCell id="Gw61-tyBEQuD_TWDLa6r-69" value="" style="ellipse;whiteSpace=wrap;html=1;aspect=fixed;" parent="1" vertex="1">
          <mxGeometry x="128.5" y="50" width="10" height="10" as="geometry" />
        </mxCell>
        <mxCell id="Gw61-tyBEQuD_TWDLa6r-70" value="" style="ellipse;whiteSpace=wrap;html=1;aspect=fixed;" parent="1" vertex="1">
          <mxGeometry x="148.5" y="50" width="10" height="10" as="geometry" />
        </mxCell>
        <mxCell id="Gw61-tyBEQuD_TWDLa6r-71" value="" style="ellipse;whiteSpace=wrap;html=1;aspect=fixed;" parent="1" vertex="1">
          <mxGeometry x="168.5" y="50" width="10" height="10" as="geometry" />
        </mxCell>
        <mxCell id="Gw61-tyBEQuD_TWDLa6r-72" value="" style="ellipse;whiteSpace=wrap;html=1;aspect=fixed;" parent="1" vertex="1">
          <mxGeometry x="48.5" y="30" width="10" height="10" as="geometry" />
        </mxCell>
        <mxCell id="Gw61-tyBEQuD_TWDLa6r-73" value="" style="ellipse;whiteSpace=wrap;html=1;aspect=fixed;" parent="1" vertex="1">
          <mxGeometry x="68.5" y="30" width="10" height="10" as="geometry" />
        </mxCell>
        <mxCell id="Gw61-tyBEQuD_TWDLa6r-74" value="" style="ellipse;whiteSpace=wrap;html=1;aspect=fixed;" parent="1" vertex="1">
          <mxGeometry x="88.5" y="30" width="10" height="10" as="geometry" />
        </mxCell>
        <mxCell id="Gw61-tyBEQuD_TWDLa6r-75" value="" style="ellipse;whiteSpace=wrap;html=1;aspect=fixed;" parent="1" vertex="1">
          <mxGeometry x="108.5" y="30" width="10" height="10" as="geometry" />
        </mxCell>
        <mxCell id="Gw61-tyBEQuD_TWDLa6r-76" value="" style="ellipse;whiteSpace=wrap;html=1;aspect=fixed;" parent="1" vertex="1">
          <mxGeometry x="128.5" y="30" width="10" height="10" as="geometry" />
        </mxCell>
        <mxCell id="Gw61-tyBEQuD_TWDLa6r-77" value="" style="ellipse;whiteSpace=wrap;html=1;aspect=fixed;" parent="1" vertex="1">
          <mxGeometry x="148.5" y="30" width="10" height="10" as="geometry" />
        </mxCell>
        <mxCell id="Gw61-tyBEQuD_TWDLa6r-78" value="" style="ellipse;whiteSpace=wrap;html=1;aspect=fixed;" parent="1" vertex="1">
          <mxGeometry x="168.5" y="30" width="10" height="10" as="geometry" />
        </mxCell>
        <mxCell id="Gw61-tyBEQuD_TWDLa6r-79" value="" style="ellipse;whiteSpace=wrap;html=1;aspect=fixed;" parent="1" vertex="1">
          <mxGeometry x="48.5" y="10" width="10" height="10" as="geometry" />
        </mxCell>
        <mxCell id="Gw61-tyBEQuD_TWDLa6r-80" value="" style="ellipse;whiteSpace=wrap;html=1;aspect=fixed;" parent="1" vertex="1">
          <mxGeometry x="68.5" y="10" width="10" height="10" as="geometry" />
        </mxCell>
        <mxCell id="Gw61-tyBEQuD_TWDLa6r-81" value="" style="ellipse;whiteSpace=wrap;html=1;aspect=fixed;" parent="1" vertex="1">
          <mxGeometry x="88.5" y="10" width="10" height="10" as="geometry" />
        </mxCell>
        <mxCell id="Gw61-tyBEQuD_TWDLa6r-82" value="" style="ellipse;whiteSpace=wrap;html=1;aspect=fixed;" parent="1" vertex="1">
          <mxGeometry x="108.5" y="10" width="10" height="10" as="geometry" />
        </mxCell>
        <mxCell id="Gw61-tyBEQuD_TWDLa6r-83" value="" style="ellipse;whiteSpace=wrap;html=1;aspect=fixed;" parent="1" vertex="1">
          <mxGeometry x="128.5" y="10" width="10" height="10" as="geometry" />
        </mxCell>
        <mxCell id="Gw61-tyBEQuD_TWDLa6r-84" value="" style="ellipse;whiteSpace=wrap;html=1;aspect=fixed;" parent="1" vertex="1">
          <mxGeometry x="148.5" y="10" width="10" height="10" as="geometry" />
        </mxCell>
        <mxCell id="Gw61-tyBEQuD_TWDLa6r-85" value="" style="ellipse;whiteSpace=wrap;html=1;aspect=fixed;" parent="1" vertex="1">
          <mxGeometry x="168.5" y="10" width="10" height="10" as="geometry" />
        </mxCell>
        <mxCell id="Gw61-tyBEQuD_TWDLa6r-87" value="TRAY盘" style="text;html=1;strokeColor=none;fillColor=none;align=center;verticalAlign=middle;whiteSpace=wrap;rounded=0;" parent="1" vertex="1">
          <mxGeometry x="35" y="-20" width="55" height="20" as="geometry" />
        </mxCell>
        <mxCell id="Gw61-tyBEQuD_TWDLa6r-88" value="" style="ellipse;whiteSpace=wrap;html=1;aspect=fixed;" parent="1" vertex="1">
          <mxGeometry x="320" y="90" width="10" height="10" as="geometry" />
        </mxCell>
        <mxCell id="Gw61-tyBEQuD_TWDLa6r-89" value="" style="ellipse;whiteSpace=wrap;html=1;aspect=fixed;" parent="1" vertex="1">
          <mxGeometry x="340" y="90" width="10" height="10" as="geometry" />
        </mxCell>
        <mxCell id="Gw61-tyBEQuD_TWDLa6r-90" value="" style="ellipse;whiteSpace=wrap;html=1;aspect=fixed;" parent="1" vertex="1">
          <mxGeometry x="360" y="90" width="10" height="10" as="geometry" />
        </mxCell>
        <mxCell id="Gw61-tyBEQuD_TWDLa6r-91" value="" style="ellipse;whiteSpace=wrap;html=1;aspect=fixed;" parent="1" vertex="1">
          <mxGeometry x="380" y="90" width="10" height="10" as="geometry" />
        </mxCell>
        <mxCell id="Gw61-tyBEQuD_TWDLa6r-92" value="" style="ellipse;whiteSpace=wrap;html=1;aspect=fixed;" parent="1" vertex="1">
          <mxGeometry x="400" y="90" width="10" height="10" as="geometry" />
        </mxCell>
        <mxCell id="Gw61-tyBEQuD_TWDLa6r-93" value="" style="ellipse;whiteSpace=wrap;html=1;aspect=fixed;" parent="1" vertex="1">
          <mxGeometry x="420" y="90" width="10" height="10" as="geometry" />
        </mxCell>
        <mxCell id="Gw61-tyBEQuD_TWDLa6r-94" value="" style="ellipse;whiteSpace=wrap;html=1;aspect=fixed;" parent="1" vertex="1">
          <mxGeometry x="440" y="90" width="10" height="10" as="geometry" />
        </mxCell>
        <mxCell id="Gw61-tyBEQuD_TWDLa6r-96" value="PNL" style="text;html=1;strokeColor=none;fillColor=none;align=center;verticalAlign=middle;whiteSpace=wrap;rounded=0;" parent="1" vertex="1">
          <mxGeometry x="310" y="60" width="55" height="20" as="geometry" />
        </mxCell>
        <mxCell id="Gw61-tyBEQuD_TWDLa6r-99" value="" style="html=1;shadow=0;dashed=0;align=center;verticalAlign=middle;shape=mxgraph.arrows2.arrow;dy=0;dx=30;notch=30;" parent="1" vertex="1">
          <mxGeometry x="200" y="65" width="100" height="60" as="geometry" />
        </mxCell>
        <mxCell id="Gw61-tyBEQuD_TWDLa6r-100" value="&lt;p&gt;PNL操作&lt;/p&gt;&lt;div&gt;1.获取PNLCode&lt;/div&gt;" style="text;html=1;strokeColor=none;fillColor=none;spacing=5;spacingTop=-20;whiteSpace=wrap;overflow=hidden;rounded=0;" parent="1" vertex="1">
          <mxGeometry x="310" y="125" width="130" height="45" as="geometry" />
        </mxCell>
        <mxCell id="Gw61-tyBEQuD_TWDLa6r-101" style="edgeStyle=orthogonalEdgeStyle;rounded=0;orthogonalLoop=1;jettySize=auto;html=1;exitX=0.5;exitY=1;exitDx=0;exitDy=0;" parent="1" source="Gw61-tyBEQuD_TWDLa6r-100" target="Gw61-tyBEQuD_TWDLa6r-100" edge="1">
          <mxGeometry relative="1" as="geometry" />
        </mxCell>
        <mxCell id="Gw61-tyBEQuD_TWDLa6r-102" value="&lt;p&gt;PCS操作&lt;/p&gt;&lt;div&gt;1.单PCS拍照&lt;/div&gt;&lt;div&gt;2.传图&lt;/div&gt;&lt;div&gt;3.通知Server&lt;/div&gt;" style="text;html=1;strokeColor=none;fillColor=none;spacing=5;spacingTop=-20;whiteSpace=wrap;overflow=hidden;rounded=0;" parent="1" vertex="1">
          <mxGeometry x="310" y="172.5" width="130" height="77.5" as="geometry" />
        </mxCell>
        <mxCell id="Gw61-tyBEQuD_TWDLa6r-103" value="" style="rounded=0;whiteSpace=wrap;html=1;" parent="1" vertex="1">
          <mxGeometry x="600" y="80" width="150" height="30" as="geometry" />
        </mxCell>
        <mxCell id="Gw61-tyBEQuD_TWDLa6r-104" value="" style="ellipse;whiteSpace=wrap;html=1;aspect=fixed;" parent="1" vertex="1">
          <mxGeometry x="610" y="90" width="10" height="10" as="geometry" />
        </mxCell>
        <mxCell id="Gw61-tyBEQuD_TWDLa6r-105" value="" style="ellipse;whiteSpace=wrap;html=1;aspect=fixed;" parent="1" vertex="1">
          <mxGeometry x="630" y="90" width="10" height="10" as="geometry" />
        </mxCell>
        <mxCell id="Gw61-tyBEQuD_TWDLa6r-106" value="" style="ellipse;whiteSpace=wrap;html=1;aspect=fixed;" parent="1" vertex="1">
          <mxGeometry x="650" y="90" width="10" height="10" as="geometry" />
        </mxCell>
        <mxCell id="Gw61-tyBEQuD_TWDLa6r-107" value="" style="ellipse;whiteSpace=wrap;html=1;aspect=fixed;" parent="1" vertex="1">
          <mxGeometry x="670" y="90" width="10" height="10" as="geometry" />
        </mxCell>
        <mxCell id="Gw61-tyBEQuD_TWDLa6r-108" value="" style="ellipse;whiteSpace=wrap;html=1;aspect=fixed;" parent="1" vertex="1">
          <mxGeometry x="690" y="90" width="10" height="10" as="geometry" />
        </mxCell>
        <mxCell id="Gw61-tyBEQuD_TWDLa6r-109" value="" style="ellipse;whiteSpace=wrap;html=1;aspect=fixed;" parent="1" vertex="1">
          <mxGeometry x="710" y="90" width="10" height="10" as="geometry" />
        </mxCell>
        <mxCell id="Gw61-tyBEQuD_TWDLa6r-110" value="" style="ellipse;whiteSpace=wrap;html=1;aspect=fixed;" parent="1" vertex="1">
          <mxGeometry x="730" y="90" width="10" height="10" as="geometry" />
        </mxCell>
        <mxCell id="Gw61-tyBEQuD_TWDLa6r-111" value="PNL" style="text;html=1;strokeColor=none;fillColor=none;align=center;verticalAlign=middle;whiteSpace=wrap;rounded=0;" parent="1" vertex="1">
          <mxGeometry x="600" y="60" width="55" height="20" as="geometry" />
        </mxCell>
        <mxCell id="Gw61-tyBEQuD_TWDLa6r-112" value="" style="html=1;shadow=0;dashed=0;align=center;verticalAlign=middle;shape=mxgraph.arrows2.arrow;dy=0;dx=30;notch=30;" parent="1" vertex="1">
          <mxGeometry x="490" y="65" width="100" height="60" as="geometry" />
        </mxCell>
        <mxCell id="Gw61-tyBEQuD_TWDLa6r-113" value="&lt;p&gt;流转&lt;/p&gt;&lt;div&gt;1.PNL流转需按顺序进行&lt;/div&gt;" style="text;html=1;strokeColor=none;fillColor=none;spacing=5;spacingTop=-20;whiteSpace=wrap;overflow=hidden;rounded=0;" parent="1" vertex="1">
          <mxGeometry x="490" y="125" width="150" height="45" as="geometry" />
        </mxCell>
        <mxCell id="AESKvt1FwOA3InU8n04Y-1" value="&lt;p&gt;特殊情况&lt;/p&gt;&lt;div&gt;1.有空穴&lt;/div&gt;" style="text;html=1;strokeColor=none;fillColor=none;spacing=5;spacingTop=-20;whiteSpace=wrap;overflow=hidden;rounded=0;" vertex="1" parent="1">
          <mxGeometry x="640" y="240" width="150" height="45" as="geometry" />
        </mxCell>
      </root>
    </mxGraphModel>
  </diagram>
</mxfile>
